<svg width="1600" height="900" viewBox="0 0 1600 900" fill="none" xmlns="http://www.w3.org/2000/svg">
<g clip-path="url(#clip0_108_41)">
<rect width="1600" height="900" rx="24" fill="white"/>
<rect width="1600" height="96" fill="#969696"/>
<circle cx="48" cy="48" r="24" fill="#F5F5F5"/>
<rect x="88" y="36" width="103.667" height="24" rx="12" fill="#F5F5F5"/>
<rect x="207.667" y="36" width="103.667" height="24" rx="12" fill="#D9D9D9"/>
<rect x="327.333" y="36" width="103.667" height="24" rx="12" fill="#D9D9D9"/>
<path d="M51.75 209V163.906H60L84.5312 199.188L76.625 193.219H80.5625V163.906H89.9688V209H81.7812L57.2188 173.5L65.125 179.469H61.1562V209H51.75ZM106 209.531C103.771 209.531 101.812 209.104 100.125 208.25C98.4375 207.375 97.1146 206.177 96.1562 204.656C95.2188 203.115 94.75 201.365 94.75 199.406V199.344C94.75 197.302 95.2604 195.562 96.2812 194.125C97.3021 192.667 98.7812 191.521 100.719 190.688C102.656 189.854 105.01 189.344 107.781 189.156L120.844 188.344V194.031L109.156 194.781C107.406 194.885 106.073 195.302 105.156 196.031C104.24 196.74 103.781 197.688 103.781 198.875V198.938C103.781 200.167 104.25 201.135 105.188 201.844C106.125 202.531 107.385 202.875 108.969 202.875C110.323 202.875 111.531 202.615 112.594 202.094C113.677 201.552 114.521 200.823 115.125 199.906C115.75 198.969 116.062 197.917 116.062 196.75V186.594C116.062 185.115 115.594 183.948 114.656 183.094C113.719 182.219 112.354 181.781 110.562 181.781C108.854 181.781 107.5 182.135 106.5 182.844C105.5 183.552 104.885 184.448 104.656 185.531L104.594 185.812H96.25L96.2812 185.438C96.4479 183.375 97.125 181.542 98.3125 179.938C99.5208 178.333 101.188 177.083 103.312 176.188C105.458 175.271 108 174.812 110.938 174.812C113.833 174.812 116.344 175.281 118.469 176.219C120.594 177.135 122.24 178.438 123.406 180.125C124.594 181.812 125.188 183.781 125.188 186.031V209H116.062V204H115.875C115.25 205.146 114.438 206.135 113.438 206.969C112.458 207.781 111.344 208.417 110.094 208.875C108.844 209.312 107.479 209.531 106 209.531ZM131.094 209V175.5H140.219V181.125H140.406C141.094 179.208 142.26 177.677 143.906 176.531C145.573 175.385 147.531 174.812 149.781 174.812C151.344 174.812 152.75 175.083 154 175.625C155.25 176.167 156.302 176.948 157.156 177.969C158.031 178.99 158.646 180.24 159 181.719H159.188C159.688 180.302 160.438 179.083 161.438 178.062C162.458 177.021 163.656 176.219 165.031 175.656C166.427 175.094 167.948 174.812 169.594 174.812C171.781 174.812 173.698 175.281 175.344 176.219C176.99 177.156 178.271 178.469 179.188 180.156C180.104 181.844 180.562 183.823 180.562 186.094V209H171.438V188.375C171.438 187.083 171.219 185.99 170.781 185.094C170.365 184.198 169.75 183.521 168.938 183.062C168.146 182.604 167.156 182.375 165.969 182.375C164.823 182.375 163.812 182.635 162.938 183.156C162.083 183.677 161.417 184.406 160.938 185.344C160.458 186.281 160.219 187.375 160.219 188.625V209H151.438V188.094C151.438 186.885 151.219 185.854 150.781 185C150.344 184.146 149.719 183.5 148.906 183.062C148.115 182.604 147.156 182.375 146.031 182.375C144.885 182.375 143.875 182.646 143 183.188C142.125 183.729 141.438 184.479 140.938 185.438C140.458 186.396 140.219 187.51 140.219 188.781V209H131.094ZM201.594 209.688C198.177 209.688 195.24 208.99 192.781 207.594C190.323 206.177 188.427 204.167 187.094 201.562C185.781 198.958 185.125 195.875 185.125 192.312V192.281C185.125 188.719 185.781 185.635 187.094 183.031C188.427 180.406 190.292 178.385 192.688 176.969C195.104 175.531 197.948 174.812 201.219 174.812C204.49 174.812 207.312 175.51 209.688 176.906C212.083 178.281 213.927 180.229 215.219 182.75C216.531 185.271 217.188 188.219 217.188 191.594V194.406H189.594V188.656H212.875L208.531 194.031V190.531C208.531 188.573 208.229 186.938 207.625 185.625C207.021 184.292 206.177 183.292 205.094 182.625C204.031 181.958 202.792 181.625 201.375 181.625C199.958 181.625 198.698 181.969 197.594 182.656C196.51 183.344 195.656 184.354 195.031 185.688C194.427 187 194.125 188.615 194.125 190.531V194.062C194.125 195.917 194.427 197.5 195.031 198.812C195.656 200.125 196.542 201.135 197.688 201.844C198.833 202.531 200.198 202.875 201.781 202.875C203.031 202.875 204.115 202.677 205.031 202.281C205.948 201.885 206.698 201.385 207.281 200.781C207.865 200.177 208.26 199.562 208.469 198.938L208.531 198.75H216.906L216.812 199.094C216.562 200.323 216.073 201.562 215.344 202.812C214.615 204.062 213.625 205.208 212.375 206.25C211.146 207.292 209.635 208.125 207.844 208.75C206.073 209.375 203.99 209.688 201.594 209.688ZM249.969 209.688C246.573 209.688 243.635 208.99 241.156 207.594C238.677 206.198 236.76 204.198 235.406 201.594C234.052 198.99 233.375 195.875 233.375 192.25V192.188C233.375 188.583 234.062 185.49 235.438 182.906C236.812 180.302 238.74 178.302 241.219 176.906C243.698 175.51 246.604 174.812 249.938 174.812C253.292 174.812 256.208 175.51 258.688 176.906C261.188 178.281 263.125 180.271 264.5 182.875C265.875 185.458 266.562 188.562 266.562 192.188V192.25C266.562 195.896 265.875 199.021 264.5 201.625C263.146 204.229 261.229 206.229 258.75 207.625C256.271 209 253.344 209.688 249.969 209.688ZM250 202.531C251.479 202.531 252.76 202.135 253.844 201.344C254.948 200.531 255.792 199.365 256.375 197.844C256.979 196.302 257.281 194.438 257.281 192.25V192.188C257.281 190.021 256.979 188.177 256.375 186.656C255.771 185.135 254.917 183.979 253.812 183.188C252.708 182.375 251.417 181.969 249.938 181.969C248.479 181.969 247.198 182.375 246.094 183.188C245.01 183.979 244.167 185.135 243.562 186.656C242.958 188.177 242.656 190.021 242.656 192.188V192.25C242.656 194.438 242.948 196.302 243.531 197.844C244.135 199.365 244.99 200.531 246.094 201.344C247.198 202.135 248.5 202.531 250 202.531ZM273.719 209V182.375H269.156V175.5H273.719V172.812C273.719 170.625 274.083 168.823 274.812 167.406C275.562 165.99 276.74 164.938 278.344 164.25C279.969 163.562 282.104 163.219 284.75 163.219C285.583 163.219 286.427 163.26 287.281 163.344C288.135 163.406 288.823 163.49 289.344 163.594V169.625C289.031 169.562 288.667 169.521 288.25 169.5C287.833 169.479 287.417 169.469 287 169.469C285.5 169.469 284.396 169.781 283.688 170.406C282.979 171.031 282.625 171.948 282.625 173.156V175.5H289.281V182.375H282.844V209H273.719ZM312.312 194.781V187.406H323.375C326.083 187.406 328.188 186.719 329.688 185.344C331.208 183.948 331.969 181.969 331.969 179.406V179.344C331.969 176.781 331.208 174.812 329.688 173.438C328.188 172.062 326.083 171.375 323.375 171.375H312.312V163.906H325.688C328.854 163.906 331.625 164.552 334 165.844C336.375 167.115 338.219 168.906 339.531 171.219C340.865 173.531 341.531 176.229 341.531 179.312V179.375C341.531 182.479 340.865 185.188 339.531 187.5C338.219 189.812 336.375 191.604 334 192.875C331.625 194.146 328.854 194.781 325.688 194.781H312.312ZM307.562 209V163.906H317V209H307.562ZM346.344 209V175.5H355.469V181.344H355.656C356.156 179.281 357.062 177.677 358.375 176.531C359.688 175.385 361.323 174.812 363.281 174.812C363.781 174.812 364.26 174.844 364.719 174.906C365.177 174.969 365.573 175.052 365.906 175.156V183.188C365.531 183.042 365.052 182.927 364.469 182.844C363.885 182.74 363.26 182.688 362.594 182.688C361.094 182.688 359.812 182.979 358.75 183.562C357.688 184.146 356.875 185 356.312 186.125C355.75 187.25 355.469 188.625 355.469 190.25V209H346.344ZM383.969 209.688C380.573 209.688 377.635 208.99 375.156 207.594C372.677 206.198 370.76 204.198 369.406 201.594C368.052 198.99 367.375 195.875 367.375 192.25V192.188C367.375 188.583 368.062 185.49 369.438 182.906C370.812 180.302 372.74 178.302 375.219 176.906C377.698 175.51 380.604 174.812 383.938 174.812C387.292 174.812 390.208 175.51 392.688 176.906C395.188 178.281 397.125 180.271 398.5 182.875C399.875 185.458 400.562 188.562 400.562 192.188V192.25C400.562 195.896 399.875 199.021 398.5 201.625C397.146 204.229 395.229 206.229 392.75 207.625C390.271 209 387.344 209.688 383.969 209.688ZM384 202.531C385.479 202.531 386.76 202.135 387.844 201.344C388.948 200.531 389.792 199.365 390.375 197.844C390.979 196.302 391.281 194.438 391.281 192.25V192.188C391.281 190.021 390.979 188.177 390.375 186.656C389.771 185.135 388.917 183.979 387.812 183.188C386.708 182.375 385.417 181.969 383.938 181.969C382.479 181.969 381.198 182.375 380.094 183.188C379.01 183.979 378.167 185.135 377.562 186.656C376.958 188.177 376.656 190.021 376.656 192.188V192.25C376.656 194.438 376.948 196.302 377.531 197.844C378.135 199.365 378.99 200.531 380.094 201.344C381.198 202.135 382.5 202.531 384 202.531ZM402.562 220.031C402.146 220.031 401.698 220.021 401.219 220C400.719 219.979 400.333 219.958 400.062 219.938V213.062C400.229 213.083 400.417 213.094 400.625 213.094C400.812 213.115 401.01 213.125 401.219 213.125C402.74 213.125 403.823 212.844 404.469 212.281C405.115 211.74 405.438 210.792 405.438 209.438V175.5H414.562V209.688C414.562 213.083 413.542 215.656 411.5 217.406C409.479 219.156 406.5 220.031 402.562 220.031ZM410 171.188C408.625 171.188 407.469 170.719 406.531 169.781C405.594 168.844 405.125 167.729 405.125 166.438C405.125 165.125 405.594 164.01 406.531 163.094C407.469 162.156 408.625 161.688 410 161.688C411.375 161.688 412.531 162.156 413.469 163.094C414.406 164.01 414.875 165.125 414.875 166.438C414.875 167.729 414.406 168.844 413.469 169.781C412.531 170.719 411.375 171.188 410 171.188ZM435.906 209.688C432.49 209.688 429.552 208.99 427.094 207.594C424.635 206.177 422.74 204.167 421.406 201.562C420.094 198.958 419.438 195.875 419.438 192.312V192.281C419.438 188.719 420.094 185.635 421.406 183.031C422.74 180.406 424.604 178.385 427 176.969C429.417 175.531 432.26 174.812 435.531 174.812C438.802 174.812 441.625 175.51 444 176.906C446.396 178.281 448.24 180.229 449.531 182.75C450.844 185.271 451.5 188.219 451.5 191.594V194.406H423.906V188.656H447.188L442.844 194.031V190.531C442.844 188.573 442.542 186.938 441.938 185.625C441.333 184.292 440.49 183.292 439.406 182.625C438.344 181.958 437.104 181.625 435.688 181.625C434.271 181.625 433.01 181.969 431.906 182.656C430.823 183.344 429.969 184.354 429.344 185.688C428.74 187 428.438 188.615 428.438 190.531V194.062C428.438 195.917 428.74 197.5 429.344 198.812C429.969 200.125 430.854 201.135 432 201.844C433.146 202.531 434.51 202.875 436.094 202.875C437.344 202.875 438.427 202.677 439.344 202.281C440.26 201.885 441.01 201.385 441.594 200.781C442.177 200.177 442.573 199.562 442.781 198.938L442.844 198.75H451.219L451.125 199.094C450.875 200.323 450.385 201.562 449.656 202.812C448.927 204.062 447.938 205.208 446.688 206.25C445.458 207.292 443.948 208.125 442.156 208.75C440.385 209.375 438.302 209.688 435.906 209.688ZM471.531 209.688C468.135 209.688 465.198 208.979 462.719 207.562C460.24 206.146 458.333 204.135 457 201.531C455.667 198.906 455 195.802 455 192.219V192.188C455 188.604 455.667 185.521 457 182.938C458.354 180.333 460.26 178.333 462.719 176.938C465.198 175.521 468.104 174.812 471.438 174.812C474.479 174.812 477.115 175.385 479.344 176.531C481.573 177.656 483.312 179.188 484.562 181.125C485.833 183.062 486.531 185.24 486.656 187.656V187.875H478.188L478.125 187.594C477.854 185.99 477.167 184.656 476.062 183.594C474.958 182.51 473.458 181.969 471.562 181.969C470.083 181.969 468.792 182.385 467.688 183.219C466.604 184.031 465.76 185.208 465.156 186.75C464.573 188.271 464.281 190.094 464.281 192.219V192.25C464.281 194.438 464.573 196.302 465.156 197.844C465.76 199.365 466.604 200.531 467.688 201.344C468.792 202.135 470.094 202.531 471.594 202.531C473.427 202.531 474.896 202.021 476 201C477.125 199.958 477.844 198.594 478.156 196.906L478.188 196.625H486.688V196.812C486.542 199.25 485.833 201.438 484.562 203.375C483.292 205.312 481.542 206.854 479.312 208C477.104 209.125 474.51 209.688 471.531 209.688ZM504.406 209.688C500.698 209.688 497.948 208.906 496.156 207.344C494.365 205.781 493.469 203.208 493.469 199.625V182.375H488.812V175.5H493.469V167.312H502.688V175.5H508.812V182.375H502.688V198.625C502.688 200.188 503.031 201.281 503.719 201.906C504.427 202.51 505.469 202.812 506.844 202.812C507.26 202.812 507.625 202.802 507.938 202.781C508.25 202.74 508.542 202.698 508.812 202.656V209.344C508.312 209.427 507.688 209.5 506.938 209.562C506.208 209.646 505.365 209.688 504.406 209.688Z" fill="#272727"/>
<rect x="48" y="228" width="1504" height="624" rx="24" fill="#D9D9D9"/>
</g>
<defs>
<clipPath id="clip0_108_41">
<rect width="1600" height="900" rx="24" fill="white"/>
</clipPath>
</defs>
</svg>
